<?xml version="1.0" encoding="UTF-8"?>
<svg width="600" height="300" viewBox="0 0 600 300" xmlns="http://www.w3.org/2000/svg">
  <defs>
    <linearGradient id="goldGradient" x1="0%" y1="0%" x2="100%" y2="100%">
      <stop offset="0%" style="stop-color:#d4af37;stop-opacity:1" />
      <stop offset="50%" style="stop-color:#f9d776;stop-opacity:1" />
      <stop offset="100%" style="stop-color:#d4af37;stop-opacity:1" />
    </linearGradient>
  </defs>
  
  <!-- Diamond Shape -->
  <polygon points="300,50 550,150 300,250 50,150" fill="none" stroke="url(#goldGradient)" stroke-width="4"/>
  
  <!-- AIChronicles Text -->
  <text x="300" y="170" font-family="Times New Roman, serif" font-size="46" font-weight="bold" text-anchor="middle" fill="url(#goldGradient)">AIChronicleS</text>
  
  <!-- Small Dragon -->
  <path d="M460,165 C470,160 475,155 480,150 C482,148 484,145 483,142 C482,140 480,139 478,138 C476,137 474,137 472,138 C470,139 469,141 468,143 C467,145 466,147 465,149 C464,151 462,153 460,154 C458,155 456,155 454,156 C452,157 450,158 449,160 C448,162 447,164 447,166 C447,168 448,170 449,172 C450,174 452,175 454,176 C456,177 458,177 460,176 C462,175 463,173 464,171 C465,169 466,167 467,165 C468,163 470,161 472,160 C474,159 476,159 478,160 C480,161 481,163 482,165 C483,167 484,169 485,171 C486,173 487,175 489,176 C490,177 492,177 494,176" fill="none" stroke="url(#goldGradient)" stroke-width="2"/>
</svg>