<?xml version="1.0" encoding="UTF-8"?>
<svg width="100" height="100" viewBox="0 0 100 100" xmlns="http://www.w3.org/2000/svg">
  <defs>
    <linearGradient id="logoGradient" x1="0%" y1="0%" x2="100%" y2="100%">
      <stop offset="0%" stop-color="#3b82f6" />
      <stop offset="100%" stop-color="#8b5cf6" />
    </linearGradient>
  </defs>
  <circle cx="50" cy="50" r="45" fill="#0f172a" stroke="url(#logoGradient)" stroke-width="5" />
  <g fill="url(#logoGradient)">
    <path d="M30,30 L40,30 L50,70 L40,70 L38,60 L32,60 L30,70 L20,70 L30,30 Z M35,40 L33,50 L37,50 L35,40 Z" />
    <path d="M60,30 C66,30 70,32 73,36 C76,40 78,46 78,52 C78,58 76,63 73,67 C70,71 66,73 60,73 L52,73 L52,30 L60,30 Z M60,63 C62,63 64,61 64,57 L64,45 C64,41 62,40 60,40 L60,63 Z" />
  </g>
</svg>
