<?xml version="1.0" encoding="UTF-8"?>
<svg width="600" height="200" viewBox="0 0 600 200" xmlns="http://www.w3.org/2000/svg">
  <defs>
    <linearGradient id="logoGradient" x1="0%" y1="0%" x2="100%" y2="100%">
      <stop offset="0%" stop-color="#3b82f6" />
      <stop offset="100%" stop-color="#8b5cf6" />
    </linearGradient>
  </defs>
  <g fill="url(#logoGradient)">
    <path d="M50,40 L80,40 L100,160 L70,160 L65,130 L35,130 L30,160 L0,160 L50,40 Z M60,70 L45,100 L60,100 L55,70 Z" />
    <path d="M110,40 L140,40 L140,160 L110,160 Z" />
    <path d="M180,40 C200,40 215,45 225,55 C235,65 240,80 240,100 C240,120 235,135 225,145 C215,155 200,160 180,160 L150,160 L150,40 L180,40 Z M180,130 C190,130 195,125 195,115 L195,85 C195,75 190,70 180,70 L180,130 Z" />
    <path d="M250,40 L280,40 L280,130 L320,130 L320,160 L250,160 Z" />
    <path d="M330,40 L360,40 L360,70 L380,70 L380,40 L410,40 L410,160 L380,160 L380,100 L360,100 L360,160 L330,160 Z" />
    <path d="M420,40 L490,40 L490,70 L450,70 L450,85 L480,85 L480,115 L450,115 L450,130 L490,130 L490,160 L420,160 Z" />
    <path d="M500,40 L530,40 L550,100 L550,40 L580,40 L580,160 L550,160 L530,100 L530,160 L500,160 Z" />
  </g>
  <text x="50" y="190" fill="url(#logoGradient)" font-family="Arial" font-size="24" font-weight="bold">AI Research & Development</text>
</svg>
