<svg width="120" height="120" viewBox="0 0 120 120" fill="none" xmlns="http://www.w3.org/2000/svg">
  <rect width="120" height="120" rx="8" fill="#0f172a"/>
  <rect x="30" y="30" width="60" height="10" rx="2" fill="#8b5cf6" opacity="0.8"/>
  <rect x="30" y="45" width="45" height="10" rx="2" fill="#2dd4bf" opacity="0.8"/>
  <rect x="30" y="60" width="30" height="10" rx="2" fill="#f59e0b" opacity="0.8"/>
  <rect x="30" y="75" width="20" height="10" rx="2" fill="#fb7185" opacity="0.8"/>
  <line x1="25" y1="95" x2="95" y2="95" stroke="#ffffff" stroke-width="1.5"/>
  <line x1="25" y1="25" x2="25" y2="95" stroke="#ffffff" stroke-width="1.5"/>
  <path d="M25 35 L90 35" stroke="#ffffff" stroke-width="0.5" stroke-dasharray="2,2"/>
  <path d="M25 50 L75 50" stroke="#ffffff" stroke-width="0.5" stroke-dasharray="2,2"/>
  <path d="M25 65 L60 65" stroke="#ffffff" stroke-width="0.5" stroke-dasharray="2,2"/>
  <path d="M25 80 L50 80" stroke="#ffffff" stroke-width="0.5" stroke-dasharray="2,2"/>
  <circle cx="90" cy="35" r="2" fill="#ffffff"/>
  <circle cx="75" cy="50" r="2" fill="#ffffff"/>
  <circle cx="60" cy="65" r="2" fill="#ffffff"/>
  <circle cx="50" cy="80" r="2" fill="#ffffff"/>
  <path d="M90 35 L75 50 L60 65 L50 80" stroke="#ffffff" stroke-width="1.5" stroke-dasharray="2,2"/>
</svg>